<?xml version="1.0" encoding="utf-8"?>
<!-- Generator: Adobe Illustrator 17.0.0, SVG Export Plug-In . SVG Version: 6.00 Build 0)  -->
<!DOCTYPE svg PUBLIC "-//W3C//DTD SVG 1.1//EN" "http://www.w3.org/Graphics/SVG/1.1/DTD/svg11.dtd">
<svg version="1.1" id="Layer_1" xmlns="http://www.w3.org/2000/svg" xmlns:xlink="http://www.w3.org/1999/xlink" x="0px" y="0px"
	 width="24px" height="24px" viewBox="0 0 24 24" enable-background="new 0 0 24 24" xml:space="preserve">
<path fill="#FFFFFF" d="M21.95,8.721c-0.017-0.109-0.025-0.168-0.025-0.168l-0.026,0.006C21.465,6.526,19.662,5,17.5,5
	C15.015,5,13,7.015,13,9.5s2.015,4.5,4.5,4.5c0.223,0,0.437-0.034,0.65-0.065c-0.069,0.232-0.14,0.468-0.254,0.68
	c-0.114,0.308-0.292,0.575-0.469,0.844c-0.148,0.291-0.409,0.488-0.601,0.737c-0.201,0.242-0.475,0.403-0.692,0.604
	c-0.213,0.21-0.492,0.315-0.714,0.463c-0.232,0.133-0.434,0.28-0.65,0.35c-0.208,0.086-0.39,0.16-0.539,0.222
	c-0.302,0.125-0.474,0.197-0.474,0.197l0.484,1.939c0,0,0.218-0.052,0.597-0.144c0.191-0.048,0.424-0.104,0.689-0.171
	c0.271-0.05,0.56-0.187,0.882-0.312c0.317-0.143,0.686-0.238,1.028-0.467c0.344-0.218,0.741-0.4,1.091-0.692
	c0.339-0.301,0.748-0.562,1.05-0.944c0.33-0.358,0.656-0.734,0.909-1.162c0.293-0.408,0.492-0.856,0.702-1.299
	c0.19-0.443,0.343-0.896,0.468-1.336c0.237-0.882,0.343-1.72,0.384-2.437c0.034-0.718,0.014-1.315-0.028-1.747
	C21.998,9.056,21.971,8.857,21.95,8.721z M10.95,8.721c-0.017-0.109-0.025-0.168-0.025-0.168l-0.026,0.006
	C10.465,6.526,8.662,5,6.5,5C4.015,5,2,7.015,2,9.5S4.015,14,6.5,14c0.223,0,0.437-0.034,0.65-0.065
	c-0.069,0.232-0.14,0.468-0.254,0.68c-0.114,0.308-0.292,0.575-0.469,0.844c-0.148,0.291-0.409,0.488-0.601,0.737
	c-0.201,0.242-0.475,0.403-0.692,0.604c-0.213,0.21-0.492,0.315-0.714,0.463c-0.232,0.133-0.434,0.28-0.65,0.35
	c-0.208,0.086-0.39,0.16-0.539,0.222C2.93,17.958,2.758,18.03,2.758,18.03l0.484,1.939c0,0,0.218-0.052,0.597-0.144
	c0.191-0.048,0.424-0.104,0.689-0.171c0.271-0.05,0.56-0.187,0.882-0.312c0.317-0.143,0.686-0.238,1.028-0.467
	c0.344-0.218,0.741-0.4,1.091-0.692c0.339-0.301,0.748-0.562,1.05-0.944c0.33-0.358,0.656-0.734,0.909-1.162
	c0.293-0.408,0.492-0.856,0.702-1.299c0.19-0.443,0.343-0.896,0.468-1.336c0.237-0.882,0.343-1.72,0.384-2.437
	c0.034-0.718,0.014-1.315-0.028-1.747C10.998,9.056,10.971,8.857,10.95,8.721z"/>
</svg>
